<svg width="559" height="485" viewBox="0 0 559 485" fill="none" xmlns="http://www.w3.org/2000/svg">
<g filter="url(#filter0_dddddd_0_369)">
<rect x="111" y="2" width="337" height="232.988" rx="10" fill="white"/>
</g>
<path d="M135.485 46.576V34.2374H130.718V32.5968H141.979V34.2374H137.213V46.576H135.485ZM146.436 46.8673C145.394 46.8673 144.494 46.6311 143.737 46.1586C142.986 45.6862 142.407 45.0325 141.999 44.1976C141.591 43.3628 141.387 42.4049 141.387 41.3241C141.387 40.2239 141.595 39.2596 142.009 38.4312C142.423 37.6028 143.009 36.9588 143.766 36.4993C144.523 36.0334 145.413 35.8004 146.436 35.8004C147.484 35.8004 148.387 36.0366 149.144 36.509C149.901 36.975 150.48 37.6254 150.882 38.4603C151.289 39.2887 151.493 40.2433 151.493 41.3241C151.493 42.4179 151.289 43.3822 150.882 44.217C150.474 45.0455 149.892 45.6959 149.134 46.1683C148.377 46.6343 147.478 46.8673 146.436 46.8673ZM146.436 45.2267C147.523 45.2267 148.332 44.8642 148.863 44.1394C149.393 43.4145 149.659 42.4761 149.659 41.3241C149.659 40.1398 149.39 39.1981 148.853 38.4991C148.316 37.7937 147.51 37.441 146.436 37.441C145.704 37.441 145.102 37.606 144.63 37.9361C144.157 38.2662 143.805 38.7224 143.572 39.3049C143.339 39.8874 143.222 40.5604 143.222 41.3241C143.222 42.502 143.494 43.4469 144.038 44.1588C144.581 44.8707 145.381 45.2267 146.436 45.2267ZM159.485 46.576C158.863 46.699 158.248 46.7476 157.64 46.7217C157.038 46.7023 156.501 46.5825 156.029 46.3625C155.556 46.136 155.197 45.7865 154.951 45.314C154.744 44.8998 154.631 44.4824 154.611 44.0617C154.598 43.6346 154.592 43.1524 154.592 42.6153V33.1793H156.32V42.5376C156.32 42.9647 156.323 43.3304 156.329 43.6346C156.342 43.9388 156.41 44.2009 156.533 44.4209C156.766 44.8351 157.135 45.0778 157.64 45.149C158.151 45.2202 158.766 45.2008 159.485 45.0908V46.576ZM152.466 37.5187V36.0916H159.485V37.5187H152.466ZM164.593 46.8673C163.81 46.8673 163.153 46.7249 162.623 46.4401C162.099 46.1489 161.7 45.7671 161.429 45.2946C161.163 44.8222 161.031 44.3044 161.031 43.7414C161.031 43.1913 161.134 42.7156 161.341 42.3143C161.555 41.9066 161.853 41.5701 162.234 41.3047C162.616 41.0329 163.073 40.8193 163.603 40.664C164.102 40.5281 164.658 40.4116 165.273 40.3145C165.894 40.211 166.522 40.1171 167.156 40.033C167.791 39.9488 168.383 39.8679 168.933 39.7903L168.312 40.1495C168.331 39.2175 168.143 38.5283 167.748 38.0817C167.36 37.6351 166.687 37.4119 165.729 37.4119C165.095 37.4119 164.538 37.5575 164.059 37.8487C163.587 38.1335 163.254 38.5995 163.06 39.2466L161.419 38.7515C161.671 37.8325 162.16 37.1109 162.885 36.5867C163.61 36.0625 164.564 35.8004 165.749 35.8004C166.7 35.8004 167.515 35.9719 168.195 36.3149C168.881 36.6514 169.373 37.1627 169.671 37.8487C169.819 38.1723 169.913 38.525 169.952 38.9069C169.991 39.2822 170.01 39.677 170.01 40.0912V46.576H168.477V44.0617L168.836 44.2947C168.441 45.1425 167.888 45.7832 167.176 46.2169C166.47 46.6505 165.61 46.8673 164.593 46.8673ZM164.856 45.4208C165.477 45.4208 166.014 45.3108 166.467 45.0908C166.927 44.8642 167.295 44.5698 167.574 44.2073C167.852 43.8384 168.033 43.4372 168.117 43.0036C168.214 42.68 168.266 42.3208 168.273 41.926C168.286 41.5247 168.292 41.2173 168.292 41.0038L168.894 41.2659C168.331 41.3435 167.778 41.418 167.234 41.4892C166.69 41.5603 166.176 41.638 165.69 41.7221C165.205 41.7998 164.768 41.8936 164.38 42.0037C164.095 42.0943 163.826 42.2108 163.574 42.3531C163.328 42.4955 163.128 42.68 162.972 42.9065C162.823 43.1265 162.749 43.4016 162.749 43.7317C162.749 44.0164 162.82 44.2882 162.963 44.5471C163.111 44.806 163.338 45.0163 163.642 45.1781C163.953 45.3399 164.357 45.4208 164.856 45.4208ZM172.729 46.576V32.3056H174.457V46.576H172.729ZM181.256 46.576V32.5968H186.702C187.537 32.5968 188.249 32.7683 188.838 33.1113C189.434 33.4543 189.887 33.9073 190.197 34.4704C190.514 35.027 190.673 35.6289 190.673 36.2761C190.673 37.0333 190.479 37.6966 190.09 38.2662C189.702 38.8357 189.178 39.2272 188.518 39.4408L188.498 38.9651C189.398 39.2046 190.097 39.6447 190.595 40.2854C191.094 40.9261 191.343 41.6898 191.343 42.5764C191.343 43.3919 191.174 44.0973 190.838 44.6927C190.508 45.2881 190.029 45.7509 189.401 46.081C188.78 46.411 188.042 46.576 187.188 46.576H181.256ZM183.004 44.9257H186.858C187.375 44.9257 187.838 44.8319 188.246 44.6442C188.654 44.45 188.974 44.1782 189.207 43.8287C189.446 43.4793 189.566 43.0586 189.566 42.5667C189.566 42.0943 189.459 41.6704 189.246 41.295C189.039 40.9196 188.744 40.6219 188.362 40.4019C187.987 40.1754 187.55 40.0621 187.052 40.0621H183.004V44.9257ZM183.004 38.4312H186.683C187.097 38.4312 187.469 38.3438 187.799 38.1691C188.136 37.9879 188.401 37.7355 188.595 37.4119C188.796 37.0883 188.896 36.7097 188.896 36.2761C188.896 35.6742 188.692 35.1823 188.285 34.8005C187.877 34.4186 187.343 34.2277 186.683 34.2277H183.004V38.4312ZM196.258 46.8673C195.474 46.8673 194.818 46.7249 194.287 46.4401C193.763 46.1489 193.365 45.7671 193.093 45.2946C192.827 44.8222 192.695 44.3044 192.695 43.7414C192.695 43.1913 192.798 42.7156 193.005 42.3143C193.219 41.9066 193.517 41.5701 193.899 41.3047C194.28 41.0329 194.737 40.8193 195.267 40.664C195.766 40.5281 196.322 40.4116 196.937 40.3145C197.558 40.211 198.186 40.1171 198.82 40.033C199.455 39.9488 200.047 39.8679 200.597 39.7903L199.976 40.1495C199.995 39.2175 199.807 38.5283 199.413 38.0817C199.024 37.6351 198.351 37.4119 197.393 37.4119C196.759 37.4119 196.203 37.5575 195.724 37.8487C195.251 38.1335 194.918 38.5995 194.724 39.2466L193.083 38.7515C193.336 37.8325 193.824 37.1109 194.549 36.5867C195.274 36.0625 196.228 35.8004 197.413 35.8004C198.364 35.8004 199.18 35.9719 199.859 36.3149C200.545 36.6514 201.037 37.1627 201.335 37.8487C201.484 38.1723 201.577 38.525 201.616 38.9069C201.655 39.2822 201.675 39.677 201.675 40.0912V46.576H200.141V44.0617L200.5 44.2947C200.105 45.1425 199.552 45.7832 198.84 46.2169C198.134 46.6505 197.274 46.8673 196.258 46.8673ZM196.52 45.4208C197.141 45.4208 197.678 45.3108 198.131 45.0908C198.591 44.8642 198.96 44.5698 199.238 44.2073C199.516 43.8384 199.697 43.4372 199.782 43.0036C199.879 42.68 199.93 42.3208 199.937 41.926C199.95 41.5247 199.956 41.2173 199.956 41.0038L200.558 41.2659C199.995 41.3435 199.442 41.418 198.898 41.4892C198.354 41.5603 197.84 41.638 197.355 41.7221C196.869 41.7998 196.432 41.8936 196.044 42.0037C195.759 42.0943 195.491 42.2108 195.238 42.3531C194.992 42.4955 194.792 42.68 194.636 42.9065C194.488 43.1265 194.413 43.4016 194.413 43.7317C194.413 44.0164 194.484 44.2882 194.627 44.5471C194.776 44.806 195.002 45.0163 195.306 45.1781C195.617 45.3399 196.021 45.4208 196.52 45.4208ZM204.393 46.576V32.3056H206.121V46.576H204.393ZM212.014 46.8673C211.231 46.8673 210.574 46.7249 210.043 46.4401C209.519 46.1489 209.121 45.7671 208.849 45.2946C208.584 44.8222 208.451 44.3044 208.451 43.7414C208.451 43.1913 208.555 42.7156 208.762 42.3143C208.975 41.9066 209.273 41.5701 209.655 41.3047C210.037 41.0329 210.493 40.8193 211.024 40.664C211.522 40.5281 212.079 40.4116 212.693 40.3145C213.315 40.211 213.942 40.1171 214.577 40.033C215.211 39.9488 215.803 39.8679 216.353 39.7903L215.732 40.1495C215.751 39.2175 215.564 38.5283 215.169 38.0817C214.781 37.6351 214.107 37.4119 213.15 37.4119C212.515 37.4119 211.959 37.5575 211.48 37.8487C211.007 38.1335 210.674 38.5995 210.48 39.2466L208.839 38.7515C209.092 37.8325 209.58 37.1109 210.305 36.5867C211.03 36.0625 211.985 35.8004 213.169 35.8004C214.12 35.8004 214.936 35.9719 215.615 36.3149C216.301 36.6514 216.793 37.1627 217.091 37.8487C217.24 38.1723 217.334 38.525 217.373 38.9069C217.411 39.2822 217.431 39.677 217.431 40.0912V46.576H215.897V44.0617L216.256 44.2947C215.861 45.1425 215.308 45.7832 214.596 46.2169C213.891 46.6505 213.03 46.8673 212.014 46.8673ZM212.276 45.4208C212.897 45.4208 213.434 45.3108 213.887 45.0908C214.347 44.8642 214.716 44.5698 214.994 44.2073C215.272 43.8384 215.454 43.4372 215.538 43.0036C215.635 42.68 215.687 42.3208 215.693 41.926C215.706 41.5247 215.713 41.2173 215.713 41.0038L216.314 41.2659C215.751 41.3435 215.198 41.418 214.654 41.4892C214.111 41.5603 213.596 41.638 213.111 41.7221C212.625 41.7998 212.189 41.8936 211.8 42.0037C211.515 42.0943 211.247 42.2108 210.995 42.3531C210.749 42.4955 210.548 42.68 210.393 42.9065C210.244 43.1265 210.169 43.4016 210.169 43.7317C210.169 44.0164 210.241 44.2882 210.383 44.5471C210.532 44.806 210.758 45.0163 211.062 45.1781C211.373 45.3399 211.778 45.4208 212.276 45.4208ZM227.42 46.576V41.3241C227.42 40.8258 227.375 40.3469 227.284 39.8874C227.2 39.4279 227.048 39.0169 226.828 38.6545C226.614 38.2856 226.323 37.9943 225.954 37.7808C225.592 37.5672 225.132 37.4604 224.576 37.4604C224.142 37.4604 223.747 37.5348 223.391 37.6837C223.042 37.8261 222.741 38.0461 222.489 38.3438C222.236 38.6415 222.039 39.0169 221.896 39.4699C221.76 39.9165 221.693 40.4439 221.693 41.0523L220.557 40.7028C220.557 39.6867 220.738 38.8163 221.1 38.0914C221.469 37.3601 221.984 36.8003 222.644 36.412C223.311 36.0172 224.094 35.8198 224.993 35.8198C225.673 35.8198 226.252 35.9266 226.731 36.1401C227.21 36.3537 227.608 36.6385 227.925 36.9944C228.242 37.3439 228.491 37.7387 228.672 38.1788C228.854 38.6124 228.98 39.0557 229.051 39.5088C229.129 39.9553 229.168 40.3792 229.168 40.7805V46.576H227.42ZM219.945 46.576V36.0916H221.498V38.8972H221.693V46.576H219.945ZM236.014 46.8673C234.952 46.8673 234.049 46.6311 233.305 46.1586C232.567 45.6797 232.004 45.0228 231.616 44.1879C231.228 43.3531 231.027 42.4017 231.014 41.3338C231.027 40.2401 231.231 39.279 231.626 38.4506C232.027 37.6157 232.6 36.9653 233.344 36.4993C234.088 36.0334 234.985 35.8004 236.033 35.8004C237.14 35.8004 238.091 36.0722 238.887 36.6158C239.69 37.1595 240.227 37.9037 240.499 38.8486L238.79 39.3631C238.57 38.7548 238.211 38.2823 237.713 37.9458C237.221 37.6093 236.654 37.441 236.014 37.441C235.295 37.441 234.703 37.6093 234.237 37.9458C233.771 38.2759 233.425 38.7354 233.198 39.3243C232.972 39.9068 232.855 40.5766 232.849 41.3338C232.862 42.4988 233.13 43.4404 233.655 44.1588C234.185 44.8707 234.972 45.2267 236.014 45.2267C236.7 45.2267 237.269 45.0713 237.722 44.7607C238.175 44.4436 238.518 43.9873 238.751 43.3919L240.499 43.8482C240.136 44.8254 239.57 45.5729 238.8 46.0907C238.03 46.6084 237.101 46.8673 236.014 46.8673ZM246.739 46.8673C245.71 46.8673 244.81 46.6408 244.04 46.1877C243.276 45.7282 242.681 45.0908 242.254 44.2753C241.827 43.4534 241.613 42.4955 241.613 41.4018C241.613 40.2563 241.823 39.2661 242.244 38.4312C242.665 37.5898 243.251 36.9427 244.001 36.4896C244.758 36.0301 245.645 35.8004 246.661 35.8004C247.716 35.8004 248.612 36.0431 249.35 36.5285C250.095 37.0138 250.651 37.7063 251.02 38.6059C251.395 39.5055 251.557 40.5766 251.505 41.8192H249.758V41.1979C249.739 39.91 249.476 38.9489 248.972 38.3147C248.467 37.674 247.716 37.3536 246.719 37.3536C245.652 37.3536 244.839 37.6966 244.283 38.3827C243.726 39.0687 243.448 40.0524 243.448 41.3338C243.448 42.57 243.726 43.5278 244.283 44.2073C244.839 44.8869 245.632 45.2267 246.661 45.2267C247.354 45.2267 247.956 45.0681 248.467 44.751C248.978 44.4339 249.379 43.9776 249.671 43.3822L251.331 43.9549C250.923 44.8804 250.308 45.5988 249.486 46.1101C248.671 46.6149 247.755 46.8673 246.739 46.8673ZM242.865 41.8192V40.431H250.612V41.8192H242.865Z" fill="black"/>
<path d="M138.925 85.4547V82.8252H141.599V85.4547H138.925ZM138.925 67.7032V65.0738H141.599V67.7032H138.925ZM140.323 83.5797C139.199 83.5797 138.193 83.3726 137.306 82.9584C136.418 82.5442 135.689 81.9598 135.12 81.2054C134.558 80.451 134.199 79.556 134.044 78.5205L136.684 78.0989C136.891 79.0087 137.335 79.7335 138.016 80.2735C138.703 80.806 139.524 81.0723 140.479 81.0723C141.396 81.0723 142.15 80.8578 142.742 80.4288C143.334 79.9924 143.629 79.4414 143.629 78.7757C143.629 78.3097 143.489 77.9325 143.208 77.644C142.927 77.3482 142.476 77.1041 141.854 76.9118L138.004 75.7136C135.763 75.0183 134.643 73.6573 134.643 71.6307C134.643 70.684 134.868 69.8593 135.32 69.1566C135.778 68.4466 136.422 67.9029 137.25 67.5257C138.078 67.1411 139.055 66.9525 140.179 66.9599C141.222 66.9673 142.15 67.1559 142.964 67.5257C143.785 67.8955 144.465 68.4281 145.005 69.1233C145.553 69.8186 145.941 70.6544 146.17 71.6307L143.43 72.13C143.326 71.6048 143.123 71.1426 142.82 70.7432C142.516 70.3437 142.135 70.0331 141.677 69.8112C141.218 69.5893 140.708 69.471 140.146 69.4562C139.606 69.4488 139.121 69.5338 138.692 69.7114C138.263 69.8815 137.923 70.1256 137.672 70.4436C137.42 70.7542 137.294 71.1056 137.294 71.4976C137.294 71.934 137.468 72.3075 137.816 72.6182C138.171 72.9288 138.729 73.1951 139.491 73.417L142.365 74.2491C143.748 74.6485 144.743 75.1921 145.349 75.88C145.963 76.5604 146.27 77.4665 146.27 78.5982C146.27 79.5893 146.022 80.4584 145.527 81.2054C145.031 81.9525 144.336 82.5368 143.441 82.9584C142.546 83.3726 141.507 83.5797 140.323 83.5797ZM155.311 83.2468V80.6063H148.232V78.11L153.347 67.2705H156.398L151.283 78.11H155.311V73.9495H158.018V78.11H159.515V80.6063H158.018V83.2468H155.311ZM161.521 86.076L161.676 84.9221C162.016 84.9517 162.286 84.8925 162.486 84.7446C162.686 84.6041 162.819 84.4007 162.885 84.1344C162.959 83.8755 162.978 83.5797 162.941 83.2468H161.521V80.3955H164.261V83.3578C164.261 84.3267 164.032 85.059 163.573 85.5545C163.115 86.0501 162.43 86.2239 161.521 86.076ZM168.038 83.2246V80.8948L174.872 74.8038C175.405 74.3304 175.775 73.8829 175.982 73.4613C176.189 73.0397 176.292 72.6329 176.292 72.2409C176.292 71.7084 176.178 71.235 175.948 70.8208C175.719 70.3992 175.401 70.0664 174.994 69.8223C174.595 69.5782 174.133 69.4562 173.607 69.4562C173.053 69.4562 172.561 69.5856 172.132 69.8445C171.71 70.096 171.381 70.4325 171.144 70.8541C170.908 71.2757 170.797 71.7306 170.812 72.2187H168.06C168.06 71.1537 168.297 70.2254 168.77 69.434C169.251 68.6426 169.909 68.0287 170.745 67.5923C171.588 67.1559 172.561 66.9377 173.663 66.9377C174.684 66.9377 175.601 67.167 176.414 67.6256C177.228 68.0767 177.868 68.7054 178.334 69.5116C178.8 70.3105 179.033 71.2313 179.033 72.2742C179.033 73.036 178.929 73.6758 178.722 74.1936C178.515 74.7113 178.204 75.1884 177.79 75.6248C177.383 76.0612 176.877 76.5457 176.27 77.0782L171.422 81.3718L171.178 80.7062H179.033V83.2246H168.038ZM187.447 83.5797C186.315 83.5797 185.317 83.3393 184.451 82.8585C183.586 82.3703 182.909 81.6936 182.421 80.8282C181.94 79.9628 181.7 78.9643 181.7 77.8326V72.6847C181.7 71.5531 181.94 70.5545 182.421 69.6892C182.909 68.8238 183.586 68.1507 184.451 67.6699C185.317 67.1818 186.315 66.9377 187.447 66.9377C188.579 66.9377 189.573 67.1818 190.431 67.6699C191.297 68.1507 191.974 68.8238 192.462 69.6892C192.95 70.5545 193.194 71.5531 193.194 72.6847V77.8326C193.194 78.9643 192.95 79.9628 192.462 80.8282C191.974 81.6936 191.297 82.3703 190.431 82.8585C189.573 83.3393 188.579 83.5797 187.447 83.5797ZM187.447 81.039C188.009 81.039 188.519 80.9059 188.978 80.6396C189.437 80.3659 189.799 80.0035 190.065 79.5523C190.332 79.0937 190.465 78.5834 190.465 78.0212V72.485C190.465 71.9155 190.332 71.4051 190.065 70.954C189.799 70.4954 189.437 70.1329 188.978 69.8667C188.519 69.593 188.009 69.4562 187.447 69.4562C186.885 69.4562 186.374 69.593 185.916 69.8667C185.457 70.1329 185.095 70.4954 184.829 70.954C184.562 71.4051 184.429 71.9155 184.429 72.485V78.0212C184.429 78.5834 184.562 79.0937 184.829 79.5523C185.095 80.0035 185.457 80.3659 185.916 80.6396C186.374 80.9059 186.885 81.039 187.447 81.039ZM202.052 83.5797C200.92 83.5797 199.922 83.3393 199.056 82.8585C198.191 82.3703 197.514 81.6936 197.026 80.8282C196.545 79.9628 196.305 78.9643 196.305 77.8326V72.6847C196.305 71.5531 196.545 70.5545 197.026 69.6892C197.514 68.8238 198.191 68.1507 199.056 67.6699C199.922 67.1818 200.92 66.9377 202.052 66.9377C203.184 66.9377 204.178 67.1818 205.036 67.6699C205.902 68.1507 206.579 68.8238 207.067 69.6892C207.555 70.5545 207.799 71.5531 207.799 72.6847V77.8326C207.799 78.9643 207.555 79.9628 207.067 80.8282C206.579 81.6936 205.902 82.3703 205.036 82.8585C204.178 83.3393 203.184 83.5797 202.052 83.5797ZM202.052 81.039C202.614 81.039 203.124 80.9059 203.583 80.6396C204.042 80.3659 204.404 80.0035 204.67 79.5523C204.937 79.0937 205.07 78.5834 205.07 78.0212V72.485C205.07 71.9155 204.937 71.4051 204.67 70.954C204.404 70.4954 204.042 70.1329 203.583 69.8667C203.124 69.593 202.614 69.4562 202.052 69.4562C201.49 69.4562 200.979 69.593 200.521 69.8667C200.062 70.1329 199.7 70.4954 199.434 70.954C199.167 71.4051 199.034 71.9155 199.034 72.485V78.0212C199.034 78.5834 199.167 79.0937 199.434 79.5523C199.7 80.0035 200.062 80.3659 200.521 80.6396C200.979 80.9059 201.49 81.039 202.052 81.039Z" fill="black"/>
<path d="M218.151 78.245V74.8015H214.707V73.4764H218.151V70.0419H219.476V73.4764H222.911V74.8015H219.476V78.245H218.151ZM227.52 80.6338V69.4289L225.078 70.9072V69.1134L227.52 67.653H229.152V80.6338H227.52ZM238.189 80.6338V78.245H232.221V76.7215L236.503 67.653H238.324L234.042 76.7215H238.189V73.0707H239.812V76.7215H241.164V78.245H239.812V80.6338H238.189ZM244.764 80.6338L243.682 79.5521L255.599 67.653L256.681 68.7348L244.764 80.6338ZM253.977 80.9042C253.382 80.9042 252.838 80.76 252.345 80.4715C251.858 80.1771 251.468 79.7864 251.173 79.2997C250.879 78.8069 250.732 78.26 250.732 77.659C250.732 77.0701 250.882 76.5292 251.182 76.0364C251.483 75.5437 251.879 75.15 252.372 74.8556C252.865 74.5611 253.4 74.4139 253.977 74.4139C254.572 74.4139 255.116 74.5611 255.608 74.8556C256.101 75.144 256.492 75.5346 256.78 76.0274C257.075 76.5142 257.222 77.0581 257.222 77.659C257.222 78.26 257.075 78.8069 256.78 79.2997C256.492 79.7864 256.101 80.1771 255.608 80.4715C255.116 80.76 254.572 80.9042 253.977 80.9042ZM253.977 79.489C254.307 79.489 254.611 79.4048 254.887 79.2366C255.17 79.0683 255.392 78.8459 255.554 78.5695C255.723 78.293 255.807 77.9896 255.807 77.659C255.807 77.3285 255.723 77.025 255.554 76.7486C255.392 76.4661 255.17 76.2438 254.887 76.0815C254.611 75.9132 254.307 75.8291 253.977 75.8291C253.646 75.8291 253.343 75.9132 253.066 76.0815C252.79 76.2438 252.568 76.4661 252.399 76.7486C252.231 77.025 252.147 77.3285 252.147 77.659C252.147 77.9896 252.231 78.293 252.399 78.5695C252.568 78.8459 252.79 79.0683 253.066 79.2366C253.343 79.4048 253.646 79.489 253.977 79.489ZM246.387 73.873C245.792 73.873 245.248 73.7288 244.755 73.4403C244.262 73.1458 243.869 72.7552 243.574 72.2684C243.286 71.7756 243.142 71.2288 243.142 70.6278C243.142 70.0389 243.292 69.498 243.592 69.0052C243.893 68.5124 244.289 68.1188 244.782 67.8243C245.275 67.5299 245.81 67.3826 246.387 67.3826C246.982 67.3826 247.523 67.5299 248.009 67.8243C248.502 68.1128 248.896 68.5034 249.19 68.9962C249.485 69.483 249.632 70.0268 249.632 70.6278C249.632 71.2288 249.485 71.7756 249.19 72.2684C248.896 72.7552 248.502 73.1458 248.009 73.4403C247.523 73.7288 246.982 73.873 246.387 73.873ZM246.387 72.4577C246.717 72.4577 247.021 72.3736 247.297 72.2053C247.58 72.0371 247.802 71.8147 247.964 71.5383C248.133 71.2618 248.217 70.9583 248.217 70.6278C248.217 70.2973 248.133 69.9938 247.964 69.7173C247.802 69.4349 247.58 69.2125 247.297 69.0503C247.021 68.882 246.717 68.7979 246.387 68.7979C246.056 68.7979 245.753 68.882 245.476 69.0503C245.2 69.2125 244.977 69.4349 244.809 69.7173C244.641 69.9938 244.557 70.2973 244.557 70.6278C244.557 70.9583 244.641 71.2618 244.809 71.5383C244.977 71.8147 245.2 72.0371 245.476 72.2053C245.753 72.3736 246.056 72.4577 246.387 72.4577Z" fill="#00E1F0"/>
<path d="M132.775 102.699H133.885V110.465H132.609V104.063L131.044 104.507L130.734 103.42L132.775 102.699ZM140.454 109.511C139.921 110.243 139.174 110.609 138.212 110.609C137.251 110.609 136.5 110.243 135.96 109.511C135.428 108.779 135.161 107.802 135.161 106.582C135.161 105.361 135.428 104.385 135.96 103.653C136.5 102.921 137.251 102.554 138.212 102.554C139.174 102.554 139.921 102.921 140.454 103.653C140.993 104.385 141.263 105.361 141.263 106.582C141.263 107.802 140.993 108.779 140.454 109.511ZM138.212 109.367C138.789 109.367 139.229 109.126 139.533 108.645C139.836 108.165 139.988 107.477 139.988 106.582C139.988 105.687 139.836 104.999 139.533 104.518C139.229 104.037 138.789 103.797 138.212 103.797C137.643 103.797 137.203 104.037 136.892 104.518C136.589 104.999 136.437 105.687 136.437 106.582C136.437 107.477 136.589 108.165 136.892 108.645C137.203 109.126 137.643 109.367 138.212 109.367ZM147.309 110.465H145.877L143.603 107.902V110.465H142.405V102.699H143.603V107.37L145.755 104.918H147.22L144.779 107.636L147.309 110.465Z" fill="#718EBF"/>
<path d="M143.064 134.23V135.417H142.176V136.815H140.889V135.417H137.073V134.23L139.746 129.049H141.133L138.459 134.23H140.889V132.211H142.176V134.23H143.064ZM148.856 136.815H147.425L145.15 134.252V136.815H143.952V129.049H145.15V133.719L147.303 131.267H148.767L146.326 133.986L148.856 136.815Z" fill="#718EBF"/>
<path d="M136.725 163.165V162.166L139.432 159.403C140.09 158.745 140.419 158.176 140.419 157.695C140.419 157.318 140.305 157.026 140.075 156.818C139.853 156.604 139.569 156.497 139.221 156.497C138.57 156.497 138.089 156.818 137.779 157.462L136.703 156.83C136.947 156.312 137.291 155.92 137.734 155.653C138.178 155.387 138.67 155.254 139.21 155.254C139.89 155.254 140.475 155.469 140.963 155.898C141.451 156.327 141.695 156.911 141.695 157.651C141.695 158.442 141.255 159.285 140.375 160.18L138.622 161.933H141.839V163.165H136.725ZM147.856 163.165H146.425L144.15 160.602V163.165H142.952V155.398H144.15V160.069L146.303 157.617H147.767L145.326 160.335L147.856 163.165Z" fill="#718EBF"/>
<path d="M145.871 189.947C145.339 190.679 144.592 191.045 143.63 191.045C142.669 191.045 141.918 190.679 141.378 189.947C140.845 189.215 140.579 188.238 140.579 187.018C140.579 185.798 140.845 184.821 141.378 184.089C141.918 183.357 142.669 182.991 143.63 182.991C144.592 182.991 145.339 183.357 145.871 184.089C146.411 184.821 146.681 185.798 146.681 187.018C146.681 188.238 146.411 189.215 145.871 189.947ZM143.63 189.803C144.207 189.803 144.647 189.562 144.95 189.082C145.254 188.601 145.405 187.913 145.405 187.018C145.405 186.123 145.254 185.435 144.95 184.954C144.647 184.474 144.207 184.233 143.63 184.233C143.061 184.233 142.62 184.474 142.31 184.954C142.007 185.435 141.855 186.123 141.855 187.018C141.855 187.913 142.007 188.601 142.31 189.082C142.62 189.562 143.061 189.803 143.63 189.803Z" fill="#718EBF"/>
<path d="M174.272 207.688C173.525 207.688 172.889 207.517 172.364 207.177C171.846 206.837 171.484 206.371 171.277 205.779L172.375 205.136C172.686 206.009 173.329 206.445 174.305 206.445C174.786 206.445 175.145 206.353 175.382 206.168C175.626 205.975 175.748 205.728 175.748 205.424C175.748 205.106 175.618 204.866 175.359 204.703C175.101 204.533 174.642 204.348 173.984 204.148C173.614 204.037 173.314 203.934 173.085 203.838C172.856 203.742 172.612 203.608 172.353 203.438C172.101 203.261 171.913 203.043 171.787 202.784C171.661 202.525 171.598 202.222 171.598 201.874C171.598 201.186 171.842 200.642 172.331 200.243C172.819 199.836 173.407 199.633 174.095 199.633C174.716 199.633 175.26 199.784 175.726 200.088C176.192 200.391 176.55 200.809 176.802 201.341L175.726 201.963C175.4 201.238 174.857 200.875 174.095 200.875C173.725 200.875 173.429 200.964 173.207 201.142C172.985 201.312 172.874 201.545 172.874 201.841C172.874 202.129 172.985 202.358 173.207 202.529C173.436 202.691 173.847 202.865 174.439 203.05C174.734 203.146 174.949 203.22 175.082 203.272C175.223 203.316 175.415 203.39 175.659 203.494C175.911 203.597 176.099 203.701 176.225 203.804C176.351 203.908 176.484 204.037 176.624 204.193C176.772 204.348 176.876 204.526 176.935 204.725C176.994 204.925 177.024 205.151 177.024 205.402C177.024 206.105 176.768 206.663 176.258 207.077C175.755 207.484 175.093 207.688 174.272 207.688Z" fill="#718EBF"/>
<path d="M159.539 180.901C159.539 178.603 161.402 176.741 163.7 176.741H183.115C185.413 176.741 187.276 178.603 187.276 180.901V193.383H159.539V180.901Z" fill="#E8F2FF"/>
<path d="M210.75 199.777V207.543H209.474V202.007L207.111 205.912H206.956L204.592 201.996V207.543H203.317V199.777H204.692L207.033 203.66L209.385 199.777H210.75Z" fill="#718EBF"/>
<path d="M192.823 172.58C192.823 170.283 194.686 168.42 196.984 168.42H216.399C218.697 168.42 220.56 170.283 220.56 172.58V193.383H192.823V172.58Z" fill="#E8F2FF"/>
<path d="M243.031 199.777V200.997H240.845V207.543H239.569V200.997H237.372V199.777H243.031Z" fill="#718EBF"/>
<path d="M226.107 139.296C226.107 136.999 227.97 135.136 230.268 135.136H249.683C251.981 135.136 253.844 136.999 253.844 139.296V193.383H226.107V139.296Z" fill="#E8F2FF"/>
<path d="M270.589 207.543L268.392 199.777H269.734L271.365 205.846L273.129 199.777H274.305L276.058 205.846L277.689 199.777H279.032L276.835 207.543H275.359L273.717 201.874L272.064 207.543H270.589Z" fill="#718EBF"/>
<path d="M259.391 154.551C259.391 152.254 261.254 150.391 263.551 150.391H282.967C285.265 150.391 287.128 152.254 287.128 154.551V193.383H259.391V154.551Z" fill="#3734A9"/>
<path d="M309.599 199.777V200.998H307.413V207.543H306.137V200.998H303.94V199.777H309.599Z" fill="#718EBF"/>
<path d="M292.675 115.72C292.675 113.423 294.538 111.56 296.836 111.56H316.251C318.549 111.56 320.412 113.423 320.412 115.72V193.383H292.675V115.72Z" fill="#3734A9"/>
<path d="M343.895 200.998H340.622V203.172H343.784V204.393H340.622V207.543H339.346V199.777H343.895V200.998Z" fill="#718EBF"/>
<path d="M325.959 180.901C325.959 178.604 327.822 176.741 330.119 176.741H349.535C351.833 176.741 353.696 178.604 353.696 180.901V193.383H325.959V180.901Z" fill="#E8F2FF"/>
<path d="M373.976 207.688C373.229 207.688 372.593 207.517 372.068 207.177C371.55 206.837 371.188 206.371 370.98 205.779L372.079 205.136C372.389 206.009 373.033 206.445 374.009 206.445C374.49 206.445 374.849 206.353 375.085 206.168C375.33 205.975 375.452 205.728 375.452 205.424C375.452 205.106 375.322 204.866 375.063 204.703C374.804 204.533 374.346 204.348 373.688 204.148C373.318 204.037 373.018 203.934 372.789 203.838C372.56 203.742 372.315 203.608 372.057 203.438C371.805 203.261 371.617 203.043 371.491 202.784C371.365 202.525 371.302 202.222 371.302 201.874C371.302 201.186 371.546 200.642 372.034 200.243C372.523 199.836 373.111 199.633 373.798 199.633C374.42 199.633 374.963 199.784 375.429 200.088C375.895 200.391 376.254 200.809 376.506 201.341L375.429 201.963C375.104 201.238 374.56 200.875 373.798 200.875C373.429 200.875 373.133 200.964 372.911 201.142C372.689 201.312 372.578 201.545 372.578 201.841C372.578 202.129 372.689 202.358 372.911 202.529C373.14 202.691 373.551 202.865 374.142 203.05C374.438 203.146 374.653 203.22 374.786 203.272C374.926 203.316 375.119 203.39 375.363 203.494C375.614 203.597 375.803 203.701 375.929 203.804C376.054 203.908 376.188 204.037 376.328 204.193C376.476 204.348 376.58 204.526 376.639 204.725C376.698 204.925 376.727 205.151 376.727 205.402C376.727 206.105 376.472 206.663 375.962 207.077C375.459 207.484 374.797 207.688 373.976 207.688Z" fill="#718EBF"/>
<path d="M359.243 154.552C359.243 152.254 361.106 150.391 363.403 150.391H382.819C385.117 150.391 386.98 152.254 386.98 154.552V193.383H359.243V154.552Z" fill="#3734A9"/>
<path d="M408.647 207.688C407.899 207.688 407.263 207.517 406.738 207.177C406.221 206.837 405.858 206.371 405.651 205.779L406.749 205.136C407.06 206.009 407.703 206.445 408.68 206.445C409.161 206.445 409.519 206.353 409.756 206.168C410 205.975 410.122 205.728 410.122 205.424C410.122 205.106 409.993 204.866 409.734 204.703C409.475 204.533 409.016 204.348 408.358 204.148C407.988 204.037 407.689 203.934 407.459 203.838C407.23 203.742 406.986 203.608 406.727 203.438C406.476 203.261 406.287 203.043 406.161 202.784C406.036 202.525 405.973 202.222 405.973 201.874C405.973 201.186 406.217 200.642 406.705 200.243C407.193 199.836 407.781 199.633 408.469 199.633C409.09 199.633 409.634 199.784 410.1 200.088C410.566 200.391 410.925 200.809 411.176 201.341L410.1 201.963C409.774 201.238 409.231 200.875 408.469 200.875C408.099 200.875 407.803 200.964 407.581 201.142C407.36 201.312 407.249 201.545 407.249 201.841C407.249 202.129 407.36 202.358 407.581 202.529C407.811 202.691 408.221 202.865 408.813 203.05C409.109 203.146 409.323 203.22 409.456 203.272C409.597 203.316 409.789 203.39 410.033 203.494C410.285 203.597 410.473 203.701 410.599 203.804C410.725 203.908 410.858 204.037 410.999 204.193C411.147 204.348 411.25 204.526 411.309 204.725C411.368 204.925 411.398 205.151 411.398 205.402C411.398 206.105 411.143 206.663 410.632 207.077C410.13 207.484 409.468 207.688 408.647 207.688Z" fill="#718EBF"/>
<path d="M392.527 133.749C392.527 131.451 394.389 129.589 396.687 129.589H416.103C418.401 129.589 420.263 131.451 420.263 133.749V193.383H392.527V133.749Z" fill="#3734A9"/>
<defs>
<filter id="filter0_dddddd_0_369" x="0.0534973" y="0.202256" width="558.893" height="484.415" filterUnits="userSpaceOnUse" color-interpolation-filters="sRGB">
<feFlood flood-opacity="0" result="BackgroundImageFix"/>
<feColorMatrix in="SourceAlpha" type="matrix" values="0 0 0 0 0 0 0 0 0 0 0 0 0 0 0 0 0 0 127 0" result="hardAlpha"/>
<feOffset dy="2.56821"/>
<feGaussianBlur stdDeviation="2.18298"/>
<feColorMatrix type="matrix" values="0 0 0 0 0 0 0 0 0 0 0 0 0 0 0 0 0 0 0.01 0"/>
<feBlend mode="normal" in2="BackgroundImageFix" result="effect1_dropShadow_0_369"/>
<feColorMatrix in="SourceAlpha" type="matrix" values="0 0 0 0 0 0 0 0 0 0 0 0 0 0 0 0 0 0 127 0" result="hardAlpha"/>
<feOffset dy="11.3001"/>
<feGaussianBlur stdDeviation="4.52004"/>
<feColorMatrix type="matrix" values="0 0 0 0 0 0 0 0 0 0 0 0 0 0 0 0 0 0 0.0117778 0"/>
<feBlend mode="normal" in2="effect1_dropShadow_0_369" result="effect2_dropShadow_0_369"/>
<feColorMatrix in="SourceAlpha" type="matrix" values="0 0 0 0 0 0 0 0 0 0 0 0 0 0 0 0 0 0 127 0" result="hardAlpha"/>
<feOffset dy="27.7366"/>
<feGaussianBlur stdDeviation="9.0144"/>
<feColorMatrix type="matrix" values="0 0 0 0 0 0 0 0 0 0 0 0 0 0 0 0 0 0 0.015 0"/>
<feBlend mode="normal" in2="effect2_dropShadow_0_369" result="effect3_dropShadow_0_369"/>
<feColorMatrix in="SourceAlpha" type="matrix" values="0 0 0 0 0 0 0 0 0 0 0 0 0 0 0 0 0 0 127 0" result="hardAlpha"/>
<feOffset dy="53.4187"/>
<feGaussianBlur stdDeviation="17.6693"/>
<feColorMatrix type="matrix" values="0 0 0 0 0 0 0 0 0 0 0 0 0 0 0 0 0 0 0.0182222 0"/>
<feBlend mode="normal" in2="effect3_dropShadow_0_369" result="effect4_dropShadow_0_369"/>
<feColorMatrix in="SourceAlpha" type="matrix" values="0 0 0 0 0 0 0 0 0 0 0 0 0 0 0 0 0 0 127 0" result="hardAlpha"/>
<feOffset dy="89.8872"/>
<feGaussianBlur stdDeviation="32.4878"/>
<feColorMatrix type="matrix" values="0 0 0 0 0 0 0 0 0 0 0 0 0 0 0 0 0 0 0.0227778 0"/>
<feBlend mode="normal" in2="effect4_dropShadow_0_369" result="effect5_dropShadow_0_369"/>
<feColorMatrix in="SourceAlpha" type="matrix" values="0 0 0 0 0 0 0 0 0 0 0 0 0 0 0 0 0 0 127 0" result="hardAlpha"/>
<feOffset dy="138.683"/>
<feGaussianBlur stdDeviation="55.4733"/>
<feColorMatrix type="matrix" values="0 0 0 0 0 0 0 0 0 0 0 0 0 0 0 0 0 0 0.03 0"/>
<feBlend mode="normal" in2="effect5_dropShadow_0_369" result="effect6_dropShadow_0_369"/>
<feBlend mode="normal" in="SourceGraphic" in2="effect6_dropShadow_0_369" result="shape"/>
</filter>
</defs>
</svg>
